<svg xmlns="http://www.w3.org/2000/svg" aria-roledescription="gitGraph" height="1806" id="mmd-8" role="graphics-document document" viewBox="-121 -291 587 530" width="2000"><style>#mmd-8{font-family:"trebuchet ms",verdana,arial,sans-serif;font-size:16px;fill:#333;}#mmd-8 .edge-animation-slow{stroke-dasharray:9,5!important;stroke-dashoffset:900;}#mmd-8 .edge-animation-fast{stroke-dasharray:9,5!important;stroke-dashoffset:900;}#mmd-8 .error-icon{fill:#552222;}#mmd-8 .error-text{fill:#552222;stroke:#552222;}#mmd-8 .edge-thickness-normal{stroke-width:1px;}#mmd-8 .edge-thickness-thick{stroke-width:3.5px;}#mmd-8 .edge-pattern-solid{stroke-dasharray:0;}#mmd-8 .edge-thickness-invisible{stroke-width:0;fill:none;}#mmd-8 .edge-pattern-dashed{stroke-dasharray:3;}#mmd-8 .edge-pattern-dotted{stroke-dasharray:2;}#mmd-8 .marker{fill:#333333;stroke:#333333;}#mmd-8 .marker.cross{stroke:#333333;}#mmd-8 svg{font-family:"trebuchet ms",verdana,arial,sans-serif;font-size:16px;}#mmd-8 p{}#mmd-8 .commit-id,#mmd-8 .commit-msg,#mmd-8 .branch-label{fill:lightgrey;color:lightgrey;font-family:'trebuchet ms',verdana,arial,sans-serif;font-family:'trebuchet ms', verdana, arial, sans-serif;}#mmd-8 .branch-label0{fill:#ffffff;}#mmd-8 .commit0{stroke:#0000ec;fill:#0000ec;}#mmd-8 .commit-highlight0{stroke:#131300;fill:#131300;}#mmd-8 .label0{fill:#0000ec;}#mmd-8 .arrow0{stroke:#0000ec;}#mmd-8 .branch-label1{fill:black;}#mmd-8 .commit1{stroke:#dede00;fill:#dede00;}#mmd-8 .commit-highlight1{stroke:#0000a1;fill:#0000a1;}#mmd-8 .label1{fill:#dede00;}#mmd-8 .arrow1{stroke:#dede00;}#mmd-8 .branch-label2{fill:black;}#mmd-8 .commit2{stroke:#9dec00;fill:#9dec00;}#mmd-8 .commit-highlight2{stroke:#310093;fill:#310093;}#mmd-8 .label2{fill:#9dec00;}#mmd-8 .arrow2{stroke:#9dec00;}#mmd-8 .branch-label3{fill:#ffffff;}#mmd-8 .commit3{stroke:#0076ec;fill:#0076ec;}#mmd-8 .commit-highlight3{stroke:#934900;fill:#934900;}#mmd-8 .label3{fill:#0076ec;}#mmd-8 .arrow3{stroke:#0076ec;}#mmd-8 .branch-label4{fill:black;}#mmd-8 .commit4{stroke:#00ecec;fill:#00ecec;}#mmd-8 .commit-highlight4{stroke:#930000;fill:#930000;}#mmd-8 .label4{fill:#00ecec;}#mmd-8 .arrow4{stroke:#00ecec;}#mmd-8 .branch-label5{fill:black;}#mmd-8 .commit5{stroke:#00ec76;fill:#00ec76;}#mmd-8 .commit-highlight5{stroke:#930049;fill:#930049;}#mmd-8 .label5{fill:#00ec76;}#mmd-8 .arrow5{stroke:#00ec76;}#mmd-8 .branch-label6{fill:black;}#mmd-8 .commit6{stroke:#ec00ec;fill:#ec00ec;}#mmd-8 .commit-highlight6{stroke:#009300;fill:#009300;}#mmd-8 .label6{fill:#ec00ec;}#mmd-8 .arrow6{stroke:#ec00ec;}#mmd-8 .branch-label7{fill:black;}#mmd-8 .commit7{stroke:#ec0000;fill:#ec0000;}#mmd-8 .commit-highlight7{stroke:#009393;fill:#009393;}#mmd-8 .label7{fill:#ec0000;}#mmd-8 .arrow7{stroke:#ec0000;}#mmd-8 .branch{stroke-width:1;stroke:#333333;stroke-dasharray:2;}#mmd-8 .commit-label{font-size:10px;fill:#000021;}#mmd-8 .commit-label-bkg{font-size:10px;fill:#ffffde;opacity:0.5;}#mmd-8 .tag-label{font-size:10px;fill:#131300;}#mmd-8 .tag-label-bkg{fill:#ECECFF;stroke:#c7c7f1;}#mmd-8 .tag-hole{fill:#333;}#mmd-8 .commit-merge{stroke:#ECECFF;fill:#ECECFF;}#mmd-8 .commit-reverse{stroke:#ECECFF;fill:#ECECFF;stroke-width:3;}#mmd-8 .commit-highlight-inner{stroke:#ECECFF;fill:#ECECFF;}#mmd-8 .arrow{stroke-width:8;fill:none;}#mmd-8 .gitTitleText{text-anchor:middle;font-size:18px;fill:#333;}


</style><g/><g class="commit-bullets"/><g class="commit-labels"/><g><line class="branch branch0" x1="0" x2="450" y1="0" y2="0"/><rect class="branchLabelBkg label0" height="23" rx="4" ry="4" transform="translate(-19, -9.5)" width="52" x="-68" y="-1.5"/><g class="branchLabel"><g class="label branch-label0" transform="translate(-78, -10.5)"><text><tspan class="row" dy="1em" x="0" xml:space="preserve">main</tspan></text></g></g><line class="branch branch1" x1="0" x2="450" y1="90" y2="90"/><rect class="branchLabelBkg label1" height="23" rx="4" ry="4" transform="translate(-19, 80.5)" width="70" x="-86" y="-1.5"/><g class="branchLabel"><g class="label branch-label1" transform="translate(-96, 79.5)"><text><tspan class="row" dy="1em" x="0" xml:space="preserve">feature</tspan></text></g></g><line class="branch branch2" x1="0" x2="450" y1="180" y2="180"/><rect class="branchLabelBkg label2" height="23" rx="4" ry="4" transform="translate(-19, 170.5)" width="61" x="-77" y="-1.5"/><g class="branchLabel"><g class="label branch-label2" transform="translate(-87, 169.5)"><text><tspan class="row" dy="1em" x="0" xml:space="preserve">hotfix</tspan></text></g></g></g><g class="commit-arrows"><path class="arrow arrow0" d="M 10 0 L 60 0"/><path class="arrow arrow1" d="M 60 0 L 60 70 A 20 20, 0, 0, 0, 80 90 L 110 90"/><path class="arrow arrow1" d="M 110 90 L 160 90"/><path class="arrow arrow0" d="M 60 0 L 210 0"/><path class="arrow arrow0" d="M 210 0 L 260 0"/><path class="arrow arrow1" d="M 160 90 L 240 90 A 20 20, 0, 0, 0, 260 70 L 260 0"/><path class="arrow arrow2" d="M 260 0 L 260 160 A 20 20, 0, 0, 0, 280 180 L 310 180"/><path class="arrow arrow0" d="M 260 0 L 360 0"/><path class="arrow arrow2" d="M 310 180 L 340 180 A 20 20, 0, 0, 0, 360 160 L 360 0"/><path class="arrow arrow0" d="M 360 0 L 410 0"/></g><g class="commit-bullets"><circle class="commit init commit0" cx="10" cy="0" r="10"/><circle class="commit v0.1 commit0" cx="60" cy="0" r="10"/><circle class="commit feat-1 commit1" cx="110" cy="90" r="10"/><circle class="commit feat-2 commit1" cx="160" cy="90" r="10"/><circle class="commit v0.2 commit0" cx="210" cy="0" r="10"/><circle class="commit 5-7b32d43 commit0" cx="260" cy="0" r="9"/><circle class="commit commit-merge 5-7b32d43 commit0" cx="260" cy="0" r="6"/><circle class="commit fix-1 commit2" cx="310" cy="180" r="10"/><circle class="commit 7-ebbd67a commit0" cx="360" cy="0" r="9"/><circle class="commit commit-merge 7-ebbd67a commit0" cx="360" cy="0" r="6"/><circle class="commit v1.0 commit0" cx="410" cy="0" r="10"/></g><g class="commit-labels"><g transform="translate(-20.42, 18.16) rotate(-45, 0, 0)"><rect class="commit-label-bkg" height="23" width="28" x="-4" y="13.5"/><text class="commit-label" x="-2" y="25">init</text></g><g transform="translate(-23.08, 20.54) rotate(-45, 50, 0)"><rect class="commit-label-bkg" height="23" width="35" x="42.5" y="13.5"/><text class="commit-label" x="44.5" y="25">v0.1</text></g><g transform="translate(-27.64, 24.619999999999997) rotate(-45, 100, 90)"><rect class="commit-label-bkg" height="23" width="47" x="86.5" y="103.5"/><text class="commit-label" x="88.5" y="115">feat-1</text></g><g transform="translate(-27.64, 24.619999999999997) rotate(-45, 150, 90)"><rect class="commit-label-bkg" height="23" width="47" x="136.5" y="103.5"/><text class="commit-label" x="138.5" y="115">feat-2</text></g><g transform="translate(-23.08, 20.54) rotate(-45, 200, 0)"><rect class="commit-label-bkg" height="23" width="35" x="192.5" y="13.5"/><text class="commit-label" x="194.5" y="25">v0.2</text></g><g transform="translate(-23.84, 21.22) rotate(-45, 300, 180)"><rect class="commit-label-bkg" height="23" width="37" x="291.5" y="193.5"/><text class="commit-label" x="293.5" y="205">fix-1</text></g><g transform="translate(-23.08, 20.54) rotate(-45, 400, 0)"><rect class="commit-label-bkg" height="23" width="35" x="392.5" y="13.5"/><text class="commit-label" x="394.5" y="25">v1.0</text></g></g></svg>