<svg xmlns="http://www.w3.org/2000/svg" aria-roledescription="pie" height="1608" id="mmd-6" role="graphics-document document" viewBox="0 0 560 450" width="2000"><style>#mmd-6{font-family:"trebuchet ms",verdana,arial,sans-serif;font-size:16px;fill:#333;}#mmd-6 .edge-animation-slow{stroke-dasharray:9,5!important;stroke-dashoffset:900;}#mmd-6 .edge-animation-fast{stroke-dasharray:9,5!important;stroke-dashoffset:900;}#mmd-6 .error-icon{fill:#552222;}#mmd-6 .error-text{fill:#552222;stroke:#552222;}#mmd-6 .edge-thickness-normal{stroke-width:1px;}#mmd-6 .edge-thickness-thick{stroke-width:3.5px;}#mmd-6 .edge-pattern-solid{stroke-dasharray:0;}#mmd-6 .edge-thickness-invisible{stroke-width:0;fill:none;}#mmd-6 .edge-pattern-dashed{stroke-dasharray:3;}#mmd-6 .edge-pattern-dotted{stroke-dasharray:2;}#mmd-6 .marker{fill:#333333;stroke:#333333;}#mmd-6 .marker.cross{stroke:#333333;}#mmd-6 svg{font-family:"trebuchet ms",verdana,arial,sans-serif;font-size:16px;}#mmd-6 p{}#mmd-6 .pieCircle{stroke:black;stroke-width:2px;opacity:0.7;}#mmd-6 .pieOuterCircle{stroke:black;stroke-width:2px;fill:none;}#mmd-6 .pieTitleText{text-anchor:middle;font-size:25px;fill:black;font-family:"trebuchet ms",verdana,arial,sans-serif;}#mmd-6 .slice{font-family:"trebuchet ms",verdana,arial,sans-serif;fill:#333;font-size:17px;}#mmd-6 .legend text{fill:black;font-family:"trebuchet ms",verdana,arial,sans-serif;font-size:17px;}


</style><g/><g transform="translate(225,225)"><circle class="pieOuterCircle" cx="0" cy="0" r="186"/><path class="pieCircle" d="M0,-185A185,185,0,0,1,108.74,149.668L0,0Z" fill="#ECECFF"/><path class="pieCircle" d="M108.74,149.668A185,185,0,0,1,-185,0L0,0Z" fill="#ffffde"/><path class="pieCircle" d="M-185,0A185,185,0,0,1,-108.74,-149.668L0,0Z" fill="#b5ff20"/><path class="pieCircle" d="M-108.74,-149.668A185,185,0,0,1,0,-185L0,0Z" fill="#b9b9ff"/><text class="slice" style="text-anchor: middle" transform="translate(131.95909163595255,-42.87610796952395)">40%</text><text class="slice" style="text-anchor: middle" transform="translate(-62.99118183886211,123.62715523113604)">35%</text><text class="slice" style="text-anchor: middle" transform="translate(-123.62715523113604,-62.991181838862104)">15%</text><text class="slice" style="text-anchor: middle" transform="translate(-42.87610796952397,-131.95909163595255)">10%</text><text class="pieTitleText" x="0" y="-200">Lieblingshaustiere</text><g class="legend" transform="translate(216,-44)"><rect height="18" style="fill: #ECECFF; stroke: #ECECFF" width="18"/><text x="22" y="14">Hunde</text></g><g class="legend" transform="translate(216,-22)"><rect height="18" style="fill: #ffffde; stroke: #ffffde" width="18"/><text x="22" y="14">Katzen</text></g><g class="legend" transform="translate(216,0)"><rect height="18" style="fill: #b5ff20; stroke: #b5ff20" width="18"/><text x="22" y="14">Voegel</text></g><g class="legend" transform="translate(216,22)"><rect height="18" style="fill: #b9b9ff; stroke: #b9b9ff" width="18"/><text x="22" y="14">Fische</text></g></g></svg>