<svg xmlns="http://www.w3.org/2000/svg" aria-roledescription="class" class="classDiagram" height="2000" id="mmd-1" role="graphics-document document" viewBox="-7 -7 349.5 359" width="1948"><style>#mmd-1{font-family:"trebuchet ms",verdana,arial,sans-serif;font-size:16px;fill:#333;}#mmd-1 .edge-animation-slow{stroke-dasharray:9,5!important;stroke-dashoffset:900;}#mmd-1 .edge-animation-fast{stroke-dasharray:9,5!important;stroke-dashoffset:900;}#mmd-1 .error-icon{fill:#552222;}#mmd-1 .error-text{fill:#552222;stroke:#552222;}#mmd-1 .edge-thickness-normal{stroke-width:1px;}#mmd-1 .edge-thickness-thick{stroke-width:3.5px;}#mmd-1 .edge-pattern-solid{stroke-dasharray:0;}#mmd-1 .edge-thickness-invisible{stroke-width:0;fill:none;}#mmd-1 .edge-pattern-dashed{stroke-dasharray:3;}#mmd-1 .edge-pattern-dotted{stroke-dasharray:2;}#mmd-1 .marker{fill:#333333;stroke:#333333;}#mmd-1 .marker.cross{stroke:#333333;}#mmd-1 svg{font-family:"trebuchet ms",verdana,arial,sans-serif;font-size:16px;}#mmd-1 p{}#mmd-1 g.classGroup text{fill:#9370DB;stroke:none;font-family:"trebuchet ms",verdana,arial,sans-serif;font-size:10px;}#mmd-1 g.classGroup text .title{font-weight:bolder;}#mmd-1 .cluster-label text{fill:#333;}#mmd-1 .cluster-label span{color:#333;}#mmd-1 .cluster-label span p{}#mmd-1 .cluster rect{fill:#ffffde;stroke:#aaaa33;stroke-width:1px;}#mmd-1 .cluster text{fill:#333;}#mmd-1 .cluster span{color:#333;}#mmd-1 .nodeLabel,#mmd-1 .edgeLabel{color:#131300;}#mmd-1 .edgeLabel .label rect{fill:#ECECFF;}#mmd-1 .label text{fill:#131300;}#mmd-1 .labelBkg{background:#ECECFF;}#mmd-1 .edgeLabel .label span{background:#ECECFF;}#mmd-1 .classTitle{font-weight:bolder;}#mmd-1 .node rect,#mmd-1 .node circle,#mmd-1 .node ellipse,#mmd-1 .node polygon,#mmd-1 .node path{fill:#ECECFF;stroke:#9370DB;stroke-width:1px;}#mmd-1 .divider{stroke:#9370DB;stroke-width:1;}#mmd-1 g.clickable{}#mmd-1 g.classGroup rect{fill:#ECECFF;stroke:#9370DB;}#mmd-1 g.classGroup line{stroke:#9370DB;stroke-width:1;}#mmd-1 .classLabel .box{stroke:none;stroke-width:0;fill:#ECECFF;opacity:0.5;}#mmd-1 .classLabel .label{fill:#9370DB;font-size:10px;}#mmd-1 .relation{stroke:#333333;stroke-width:1;fill:none;}#mmd-1 .dashed-line{stroke-dasharray:3;}#mmd-1 .dotted-line{stroke-dasharray:1 2;}#mmd-1 #compositionStart,#mmd-1 .composition{fill:#333333!important;stroke:#333333!important;stroke-width:1;}#mmd-1 #compositionEnd,#mmd-1 .composition{fill:#333333!important;stroke:#333333!important;stroke-width:1;}#mmd-1 #dependencyStart,#mmd-1 .dependency{fill:#333333!important;stroke:#333333!important;stroke-width:1;}#mmd-1 #dependencyStart,#mmd-1 .dependency{fill:#333333!important;stroke:#333333!important;stroke-width:1;}#mmd-1 #extensionStart,#mmd-1 .extension{fill:none!important;stroke:#333333!important;stroke-width:1;}#mmd-1 #extensionEnd,#mmd-1 .extension{fill:none!important;stroke:#333333!important;stroke-width:1;}#mmd-1 #aggregationStart,#mmd-1 .aggregation{fill:none!important;stroke:#333333!important;stroke-width:1;}#mmd-1 #aggregationEnd,#mmd-1 .aggregation{fill:none!important;stroke:#333333!important;stroke-width:1;}#mmd-1 #lollipopStart,#mmd-1 .lollipop{fill:#ECECFF!important;stroke:#333333!important;stroke-width:1;}#mmd-1 #lollipopEnd,#mmd-1 .lollipop{fill:#ECECFF!important;stroke:#333333!important;stroke-width:1;}#mmd-1 .edgeTerminals{font-size:11px;line-height:initial;}#mmd-1 .classTitleText{text-anchor:middle;font-size:18px;fill:#333;}#mmd-1 .label-icon{height:1em;}#mmd-1 .node .label-icon path{fill:#333333;}


</style><g><defs><marker class="marker aggregation class" id="mmd-1_class-aggregationStart" markerHeight="30" markerWidth="30" orient="auto" overflow="visible" refX="18" refY="7"><path d="M 18,7 L9,13 L1,7 L9,1 Z" fill="#333333" style="fill:#333333;"/></marker><marker class="marker aggregation class" id="mmd-1_class-aggregationEnd" markerHeight="28" markerWidth="20" orient="auto" overflow="visible" refX="1" refY="7"><path d="M 18,7 L9,13 L1,7 L9,1 Z" fill="#333333" style="fill:#333333;"/></marker><marker class="marker extension class" id="mmd-1_class-extensionStart" markerHeight="30" markerWidth="30" orient="auto" overflow="visible" refX="18" refY="7"><path d="M 1,7 L18,13 V 1 Z" fill="#333333" style="fill:#333333;"/></marker><marker class="marker extension class" id="mmd-1_class-extensionEnd" markerHeight="28" markerWidth="20" orient="auto" overflow="visible" refX="1" refY="7"><path d="M 1,1 V 13 L18,7 Z" fill="#333333" style="fill:#333333;"/></marker><marker class="marker composition class" id="mmd-1_class-compositionStart" markerHeight="30" markerWidth="30" orient="auto" overflow="visible" refX="18" refY="7"><path d="M 18,7 L9,13 L1,7 L9,1 Z" fill="#333333" style="fill:#333333;"/></marker><marker class="marker composition class" id="mmd-1_class-compositionEnd" markerHeight="28" markerWidth="20" orient="auto" overflow="visible" refX="1" refY="7"><path d="M 18,7 L9,13 L1,7 L9,1 Z" fill="#333333" style="fill:#333333;"/></marker><marker class="marker dependency class" id="mmd-1_class-dependencyStart" markerHeight="30" markerWidth="30" orient="auto" overflow="visible" refX="6" refY="7"><path d="M 5,7 L9,13 L1,7 L9,1 Z" fill="#333333" style="fill:#333333;"/></marker><marker class="marker dependency class" id="mmd-1_class-dependencyEnd" markerHeight="28" markerWidth="20" orient="auto" overflow="visible" refX="13" refY="7"><path d="M 18,7 L9,13 L14,7 L9,1 Z" fill="#333333" style="fill:#333333;"/></marker><marker class="marker lollipop class" id="mmd-1_class-lollipopStart" markerHeight="30" markerWidth="30" orient="auto" overflow="visible" refX="13" refY="7"><circle cx="7" cy="7" fill="#333333" r="6" style="fill:#333333;"/></marker><marker class="marker lollipop class" id="mmd-1_class-lollipopEnd" markerHeight="30" markerWidth="30" orient="auto" overflow="visible" refX="1" refY="7"><circle cx="7" cy="7" fill="#333333" r="6" style="fill:#333333;"/></marker></defs><defs/><defs/><defs/><defs/><defs/><defs/><defs/><defs/><defs/><g class="root"><g class="clusters"/><g class="nodes"><g class="node default " id="classId-Animal-0" transform="translate(173.875, 93)"><g class="basic label-container"><path d="M-84.25 -85 L84.25 -85 L84.25 85 L-84.25 85" fill="#ECECFF" stroke="none" stroke-width="0"/><path d="M-84.25 -85 C-24.80750139391602 -85, 34.63499721216796 -85, 84.25 -85 M-84.25 -85 C-18.561069071686106 -85, 47.12786185662779 -85, 84.25 -85 M84.25 -85 C84.25 -23.403419114488287, 84.25 38.193161771023426, 84.25 85 M84.25 -85 C84.25 -21.681425804093735, 84.25 41.63714839181253, 84.25 85 M84.25 85 C36.59352109164144 85, -11.062957816717116 85, -84.25 85 M84.25 85 C34.43664544242208 85, -15.376709115155833 85, -84.25 85 M-84.25 85 C-84.25 33.939399027617426, -84.25 -17.121201944765147, -84.25 -85 M-84.25 85 C-84.25 22.317577598425203, -84.25 -40.364844803149595, -84.25 -85" fill="none" stroke="#9370DB" stroke-dasharray="0 0" stroke-width="1.3"/></g><g class="annotation-group text" transform="translate(-36.5, -65)"><g class="label" transform="translate(0,-9.5)"><g><text y="-10.1"><tspan class="text-outer-tspan row" dy="1.1em" x="0" y="-0.1em"><tspan class="text-inner-tspan" font-style="normal" font-weight="normal">«abstract»</tspan></tspan></text></g></g></g><g class="label-group text" transform="translate(-23.5, -46)"><g class="label" style="font-weight: bolder" transform="translate(0,-9.5)"><g><text y="-10.1"><tspan class="text-outer-tspan row" dy="1.1em" x="0" y="-0.1em"><tspan class="text-inner-tspan" font-style="normal">Animal</tspan></tspan></text></g></g></g><g class="members-group text" transform="translate(-72.25, -3)"><g class="label" transform="translate(0,-9.5)"><g><text y="-10.1"><tspan class="text-outer-tspan row" dy="1.1em" x="0" y="-0.1em"><tspan class="text-inner-tspan" font-style="normal" font-weight="normal">+String</tspan><tspan class="text-inner-tspan" font-style="normal" font-weight="normal"> name</tspan></tspan></text></g></g><g class="label" transform="translate(0,12.5)"><g><text y="-10.1"><tspan class="text-outer-tspan row" dy="1.1em" x="0" y="-0.1em"><tspan class="text-inner-tspan" font-style="normal" font-weight="normal">+int</tspan><tspan class="text-inner-tspan" font-style="normal" font-weight="normal"> age</tspan></tspan></text></g></g></g><g class="methods-group text" transform="translate(-72.25, 62)"><g class="label" transform="translate(0,-9.5)"><g><text y="-10.1"><tspan class="text-outer-tspan row" dy="1.1em" x="0" y="-0.1em"><tspan class="text-inner-tspan" font-style="normal" font-weight="normal">+speak()</tspan><tspan class="text-inner-tspan" font-style="normal" font-weight="normal"> :</tspan><tspan class="text-inner-tspan" font-style="normal" font-weight="normal"> void</tspan></tspan></text></g></g></g><g class="divider"><path d="M-84.25 -23 C-23.937489039965484 -23, 36.37502192006903 -23, 84.25 -23 M-84.25 -23 C-31.239693923269797 -23, 21.770612153460405 -23, 84.25 -23" fill="none" stroke="#9370DB" stroke-dasharray="0 0" stroke-width="1.3"/></g><g class="divider"><path d="M-84.25 42 C-24.276410199353784 42, 35.69717960129243 42, 84.25 42 M-84.25 42 C-30.38810944541857 42, 23.473781109162857 42, 84.25 42" fill="none" stroke="#9370DB" stroke-dasharray="0 0" stroke-width="1.3"/></g></g><g class="node default " id="classId-Dog-1" transform="translate(79.75, 286)"><g class="basic label-container"><path d="M-71.75 -58 L71.75 -58 L71.75 58 L-71.75 58" fill="#ECECFF" stroke="none" stroke-width="0"/><path d="M-71.75 -58 C-29.325380221375774 -58, 13.099239557248453 -58, 71.75 -58 M-71.75 -58 C-33.94929247056884 -58, 3.8514150588623153 -58, 71.75 -58 M71.75 -58 C71.75 -12.287119134039848, 71.75 33.4257617319203, 71.75 58 M71.75 -58 C71.75 -25.710865905741258, 71.75 6.578268188517484, 71.75 58 M71.75 58 C24.2023270533793 58, -23.3453458932414 58, -71.75 58 M71.75 58 C29.773106936837593 58, -12.203786126324815 58, -71.75 58 M-71.75 58 C-71.75 31.081443559029438, -71.75 4.162887118058876, -71.75 -58 M-71.75 58 C-71.75 18.772781791612495, -71.75 -20.45443641677501, -71.75 -58" fill="none" stroke="#9370DB" stroke-dasharray="0 0" stroke-width="1.3"/></g><g class="annotation-group text" transform="translate(0, -38)"/><g class="label-group text" transform="translate(-13.5, -38)"><g class="label" style="font-weight: bolder" transform="translate(0,-9.5)"><g><text y="-10.1"><tspan class="text-outer-tspan row" dy="1.1em" x="0" y="-0.1em"><tspan class="text-inner-tspan" font-style="normal">Dog</tspan></tspan></text></g></g></g><g class="members-group text" transform="translate(-59.75, 5)"/><g class="methods-group text" transform="translate(-59.75, 35)"><g class="label" transform="translate(0,-9.5)"><g><text y="-10.1"><tspan class="text-outer-tspan row" dy="1.1em" x="0" y="-0.1em"><tspan class="text-inner-tspan" font-style="normal" font-weight="normal">+fetch()</tspan><tspan class="text-inner-tspan" font-style="normal" font-weight="normal"> :</tspan><tspan class="text-inner-tspan" font-style="normal" font-weight="normal"> void</tspan></tspan></text></g></g></g><g class="divider"><path d="M-71.75 -15 C-35.47812637715227 -15, 0.7937472456954566 -15, 71.75 -15 M-71.75 -15 C-20.429415441216783 -15, 30.891169117566434 -15, 71.75 -15" fill="none" stroke="#9370DB" stroke-dasharray="0 0" stroke-width="1.3"/></g><g class="divider"><path d="M-71.75 9 C-25.327089192748524 9, 21.095821614502952 9, 71.75 9 M-71.75 9 C-35.20631369803236 9, 1.337372603935279 9, 71.75 9" fill="none" stroke="#9370DB" stroke-dasharray="0 0" stroke-width="1.3"/></g></g><g class="node default " id="classId-Cat-2" transform="translate(268, 286)"><g class="basic label-container"><path d="M-66.5 -58 L66.5 -58 L66.5 58 L-66.5 58" fill="#ECECFF" stroke="none" stroke-width="0"/><path d="M-66.5 -58 C-37.48927209531896 -58, -8.478544190637919 -58, 66.5 -58 M-66.5 -58 C-15.116219663970348 -58, 36.267560672059304 -58, 66.5 -58 M66.5 -58 C66.5 -27.971544325621934, 66.5 2.056911348756131, 66.5 58 M66.5 -58 C66.5 -32.91972921566773, 66.5 -7.8394584313354585, 66.5 58 M66.5 58 C29.29140728362887 58, -7.917185432742258 58, -66.5 58 M66.5 58 C21.545321536798042 58, -23.409356926403916 58, -66.5 58 M-66.5 58 C-66.5 24.021670156021436, -66.5 -9.956659687957128, -66.5 -58 M-66.5 58 C-66.5 20.943880368765413, -66.5 -16.112239262469174, -66.5 -58" fill="none" stroke="#9370DB" stroke-dasharray="0 0" stroke-width="1.3"/></g><g class="annotation-group text" transform="translate(0, -38)"/><g class="label-group text" transform="translate(-12, -38)"><g class="label" style="font-weight: bolder" transform="translate(0,-9.5)"><g><text y="-10.1"><tspan class="text-outer-tspan row" dy="1.1em" x="0" y="-0.1em"><tspan class="text-inner-tspan" font-style="normal">Cat</tspan></tspan></text></g></g></g><g class="members-group text" transform="translate(-54.5, 5)"/><g class="methods-group text" transform="translate(-54.5, 35)"><g class="label" transform="translate(0,-9.5)"><g><text y="-10.1"><tspan class="text-outer-tspan row" dy="1.1em" x="0" y="-0.1em"><tspan class="text-inner-tspan" font-style="normal" font-weight="normal">+purr()</tspan><tspan class="text-inner-tspan" font-style="normal" font-weight="normal"> :</tspan><tspan class="text-inner-tspan" font-style="normal" font-weight="normal"> void</tspan></tspan></text></g></g></g><g class="divider"><path d="M-66.5 -15 C-29.701358207540366 -15, 7.097283584919268 -15, 66.5 -15 M-66.5 -15 C-29.949918078982115 -15, 6.600163842035769 -15, 66.5 -15" fill="none" stroke="#9370DB" stroke-dasharray="0 0" stroke-width="1.3"/></g><g class="divider"><path d="M-66.5 9 C-29.155048663467568 9, 8.189902673064864 9, 66.5 9 M-66.5 9 C-18.0899372071594 9, 30.320125585681197 9, 66.5 9" fill="none" stroke="#9370DB" stroke-dasharray="0 0" stroke-width="1.3"/></g></g></g><g class="edgePaths"><path class=" edge-thickness-normal edge-pattern-solid relation" d="M89.927,191.107L88.231,193.089C86.535,195.071,83.142,199.036,81.446,205.184C79.75,211.333,79.75,219.667,79.75,223.833L79.75,228" data-edge="true" data-et="edge" data-id="id_Animal_Dog_1" data-points="W3sieCI6MTAxLjE0MjA0NTQ1NDU0NTQ1LCJ5IjoxNzh9LHsieCI6NzkuNzUsInkiOjIwM30seyJ4Ijo3OS43NSwieSI6MjI4fV0=" id="id_Animal_Dog_1" marker-start="url(#mmd-1_class-extensionStart)"/><path class=" edge-thickness-normal edge-pattern-solid relation" d="M257.823,191.107L259.519,193.089C261.215,195.071,264.608,199.036,266.304,205.184C268,211.333,268,219.667,268,223.833L268,228" data-edge="true" data-et="edge" data-id="id_Animal_Cat_2" data-points="W3sieCI6MjQ2LjYwNzk1NDU0NTQ1NDU2LCJ5IjoxNzh9LHsieCI6MjY4LCJ5IjoyMDN9LHsieCI6MjY4LCJ5IjoyMjh9XQ==" id="id_Animal_Cat_2" marker-start="url(#mmd-1_class-extensionStart)"/></g><g class="edgeLabels"><g class="edgeLabel"><g class="label" data-id="id_Animal_Dog_1" transform="translate(0, 0)"><text dy="0.35em" text-anchor="middle" y="0"><tspan class="text-outer-tspan row" text-anchor="middle" x="0"/></text></g></g><g/><g class="edgeLabel"><g class="label" data-id="id_Animal_Cat_2" transform="translate(0, 0)"><text dy="0.35em" text-anchor="middle" y="0"><tspan class="text-outer-tspan row" text-anchor="middle" x="0"/></text></g></g><g/></g></g></g></svg>