<svg xmlns="http://www.w3.org/2000/svg" aria-roledescription="xychart" height="1424" id="mmd-11" role="graphics-document document" viewBox="-17 -8 725 516" width="2001"><style>#mmd-11{font-family:"trebuchet ms",verdana,arial,sans-serif;font-size:16px;fill:#333;}#mmd-11 .edge-animation-slow{stroke-dasharray:9,5!important;stroke-dashoffset:900;}#mmd-11 .edge-animation-fast{stroke-dasharray:9,5!important;stroke-dashoffset:900;}#mmd-11 .error-icon{fill:#552222;}#mmd-11 .error-text{fill:#552222;stroke:#552222;}#mmd-11 .edge-thickness-normal{stroke-width:1px;}#mmd-11 .edge-thickness-thick{stroke-width:3.5px;}#mmd-11 .edge-pattern-solid{stroke-dasharray:0;}#mmd-11 .edge-thickness-invisible{stroke-width:0;fill:none;}#mmd-11 .edge-pattern-dashed{stroke-dasharray:3;}#mmd-11 .edge-pattern-dotted{stroke-dasharray:2;}#mmd-11 .marker{fill:#333333;stroke:#333333;}#mmd-11 .marker.cross{stroke:#333333;}#mmd-11 svg{font-family:"trebuchet ms",verdana,arial,sans-serif;font-size:16px;}#mmd-11 p{}


</style><g/><g class="main"><rect class="background" fill="white" height="500" width="700"/><g class="chart-title"><text fill="#131300" font-size="20" text-anchor="middle" transform="translate(350, 22) rotate(0)" x="0" y="0">Wetter Halbjahr</text></g><g class="plot"><g class="bar-plot-0"><rect fill="#ECECFF" height="210.5" stroke="#ECECFF" stroke-width="0" width="66.5" x="68.75" y="254.5"/><rect fill="#ECECFF" height="170.20000000000005" stroke="#ECECFF" stroke-width="0" width="66.5" x="181.35" y="294.79999999999995"/><rect fill="#ECECFF" height="230.65" stroke="#ECECFF" stroke-width="0" width="66.5" x="293.95" y="234.35"/><rect fill="#ECECFF" height="291.1" stroke="#ECECFF" stroke-width="0" width="66.5" x="406.54999999999995" y="173.9"/><rect fill="#ECECFF" height="351.55" stroke="#ECECFF" stroke-width="0" width="66.5" x="519.15" y="113.45"/><rect fill="#ECECFF" height="250.8" stroke="#ECECFF" stroke-width="0" width="66.5" x="631.75" y="214.2"/></g><g class="line-plot-1"><path d="M102,447.94L214.6,439.88L327.2,423.76L439.8,399.58L552.4,379.43L665,367.34" fill="none" stroke="#8493A6" stroke-width="2"/></g></g><g class="bottom-axis"><g class="axis-line"><path d="M 67,466 L 700,466" fill="none" stroke="#131300" stroke-width="2"/></g><g class="label"><text fill="#131300" font-size="14" text-anchor="middle" transform="translate(102, 477) rotate(0)" x="0" y="0">Jan</text><text fill="#131300" font-size="14" text-anchor="middle" transform="translate(214.6, 477) rotate(0)" x="0" y="0">Feb</text><text fill="#131300" font-size="14" text-anchor="middle" transform="translate(327.2, 477) rotate(0)" x="0" y="0">Mar</text><text fill="#131300" font-size="14" text-anchor="middle" transform="translate(439.79999999999995, 477) rotate(0)" x="0" y="0">Apr</text><text fill="#131300" font-size="14" text-anchor="middle" transform="translate(552.4, 477) rotate(0)" x="0" y="0">Mai</text><text fill="#131300" font-size="14" text-anchor="middle" transform="translate(665, 477) rotate(0)" x="0" y="0">Jun</text></g><g class="ticks"><path d="M 102,467 L 102,472" fill="none" stroke="#131300" stroke-width="2"/><path d="M 214.6,467 L 214.6,472" fill="none" stroke="#131300" stroke-width="2"/><path d="M 327.2,467 L 327.2,472" fill="none" stroke="#131300" stroke-width="2"/><path d="M 439.79999999999995,467 L 439.79999999999995,472" fill="none" stroke="#131300" stroke-width="2"/><path d="M 552.4,467 L 552.4,472" fill="none" stroke="#131300" stroke-width="2"/><path d="M 665,467 L 665,472" fill="none" stroke="#131300" stroke-width="2"/></g></g><g class="left-axis"><g class="axisl-line"><path d="M 66,44 L 66,465 " fill="none" stroke="#131300" stroke-width="2"/></g><g class="label"><text fill="#131300" font-size="14" text-anchor="end" transform="translate(55, 53) rotate(0)" x="0" y="0">100</text><text fill="#131300" font-size="14" text-anchor="end" transform="translate(55, 93.29999999999998) rotate(0)" x="0" y="0">90</text><text fill="#131300" font-size="14" text-anchor="end" transform="translate(55, 133.59999999999997) rotate(0)" x="0" y="0">80</text><text fill="#131300" font-size="14" text-anchor="end" transform="translate(55, 173.9) rotate(0)" x="0" y="0">70</text><text fill="#131300" font-size="14" text-anchor="end" transform="translate(55, 214.2) rotate(0)" x="0" y="0">60</text><text fill="#131300" font-size="14" text-anchor="end" transform="translate(55, 254.5) rotate(0)" x="0" y="0">50</text><text fill="#131300" font-size="14" text-anchor="end" transform="translate(55, 294.79999999999995) rotate(0)" x="0" y="0">40</text><text fill="#131300" font-size="14" text-anchor="end" transform="translate(55, 335.09999999999997) rotate(0)" x="0" y="0">30</text><text fill="#131300" font-size="14" text-anchor="end" transform="translate(55, 375.40000000000003) rotate(0)" x="0" y="0">20</text><text fill="#131300" font-size="14" text-anchor="end" transform="translate(55, 415.70000000000005) rotate(0)" x="0" y="0">10</text><text fill="#131300" font-size="14" text-anchor="end" transform="translate(55, 456) rotate(0)" x="0" y="0">0</text></g><g class="ticks"><path d="M 65,53 L 60,53" fill="none" stroke="#131300" stroke-width="2"/><path d="M 65,93.29999999999998 L 60,93.29999999999998" fill="none" stroke="#131300" stroke-width="2"/><path d="M 65,133.59999999999997 L 60,133.59999999999997" fill="none" stroke="#131300" stroke-width="2"/><path d="M 65,173.9 L 60,173.9" fill="none" stroke="#131300" stroke-width="2"/><path d="M 65,214.2 L 60,214.2" fill="none" stroke="#131300" stroke-width="2"/><path d="M 65,254.5 L 60,254.5" fill="none" stroke="#131300" stroke-width="2"/><path d="M 65,294.79999999999995 L 60,294.79999999999995" fill="none" stroke="#131300" stroke-width="2"/><path d="M 65,335.09999999999997 L 60,335.09999999999997" fill="none" stroke="#131300" stroke-width="2"/><path d="M 65,375.40000000000003 L 60,375.40000000000003" fill="none" stroke="#131300" stroke-width="2"/><path d="M 65,415.70000000000005 L 60,415.70000000000005" fill="none" stroke="#131300" stroke-width="2"/><path d="M 65,456 L 60,456" fill="none" stroke="#131300" stroke-width="2"/></g><g class="title"><text fill="#131300" font-size="16" text-anchor="middle" transform="translate(5, 254.5) rotate(270)" x="0" y="0">Werte</text></g></g></g><g class="mermaid-tmp-group"/></svg>