<svg xmlns="http://www.w3.org/2000/svg" aria-roledescription="journey" height="720" id="mmd-4" preserveAspectRatio="xMinYMin meet" role="graphics-document document" viewBox="0 -25 1500 540" width="2000"><style>#mmd-4{font-family:"trebuchet ms",verdana,arial,sans-serif;font-size:16px;fill:#333;}#mmd-4 .edge-animation-slow{stroke-dasharray:9,5!important;stroke-dashoffset:900;}#mmd-4 .edge-animation-fast{stroke-dasharray:9,5!important;stroke-dashoffset:900;}#mmd-4 .error-icon{fill:#552222;}#mmd-4 .error-text{fill:#552222;stroke:#552222;}#mmd-4 .edge-thickness-normal{stroke-width:1px;}#mmd-4 .edge-thickness-thick{stroke-width:3.5px;}#mmd-4 .edge-pattern-solid{stroke-dasharray:0;}#mmd-4 .edge-thickness-invisible{stroke-width:0;fill:none;}#mmd-4 .edge-pattern-dashed{stroke-dasharray:3;}#mmd-4 .edge-pattern-dotted{stroke-dasharray:2;}#mmd-4 .marker{fill:#333333;stroke:#333333;}#mmd-4 .marker.cross{stroke:#333333;}#mmd-4 svg{font-family:"trebuchet ms",verdana,arial,sans-serif;font-size:16px;}#mmd-4 p{}#mmd-4 .label{font-family:"trebuchet ms",verdana,arial,sans-serif;color:#333;}#mmd-4 .mouth{stroke:#666;}#mmd-4 line{stroke:#333;}#mmd-4 .legend{fill:#333;font-family:"trebuchet ms",verdana,arial,sans-serif;}#mmd-4 .label text{fill:#333;}#mmd-4 .label{color:#333;}#mmd-4 .face{fill:#FFF8DC;stroke:#999;}#mmd-4 .node rect,#mmd-4 .node circle,#mmd-4 .node ellipse,#mmd-4 .node polygon,#mmd-4 .node path{fill:#ECECFF;stroke:#9370DB;stroke-width:1px;}#mmd-4 .node .label{}#mmd-4 .node.clickable{}#mmd-4 .arrowheadPath{fill:#333333;}#mmd-4 .edgePath .path{stroke:#333333;stroke-width:1.5px;}#mmd-4 .flowchart-link{stroke:#333333;fill:none;}#mmd-4 .edgeLabel{}#mmd-4 .edgeLabel rect{opacity:0.5;}#mmd-4 .cluster text{fill:#333;}#mmd-4 div.mermaidTooltip{font-family:"trebuchet ms",verdana,arial,sans-serif;font-size:12px;background:#f9ffec;border:1px solid #aaaa33;border-radius:2px;}#mmd-4 .task-type-0,#mmd-4 .section-type-0{fill:#ECECFF;}#mmd-4 .task-type-1,#mmd-4 .section-type-1{fill:#ffffde;}#mmd-4 .task-type-2,#mmd-4 .section-type-2{fill:#ffecfe;}#mmd-4 .task-type-3,#mmd-4 .section-type-3{fill:#deffe0;}#mmd-4 .task-type-4,#mmd-4 .section-type-4{fill:#ecfffe;}#mmd-4 .task-type-5,#mmd-4 .section-type-5{fill:#ffdee0;}#mmd-4 .task-type-6,#mmd-4 .section-type-6{fill:#ffefec;}#mmd-4 .task-type-7,#mmd-4 .section-type-7{fill:#defbff;}#mmd-4 .label-icon{height:1em;}#mmd-4 .node .label-icon path{fill:#333333;}


</style><g/><defs><marker id="arrowhead" markerHeight="12" markerWidth="12" orient="auto" overflow="visible" refX="5" refY="2"><path d="M 0,0 V 4 L6,2 Z" fill="#333333" style="fill:#333333;"/></marker></defs><circle class="actor-0" cx="20" cy="60" fill="#8FBC8F" r="7" stroke="#000"/><text class="legend" x="40" y="67"><tspan x="50">Kunde</tspan></text><circle class="actor-1" cx="20" cy="80" fill="#7CFC00" r="7" stroke="#000"/><text class="legend" x="40" y="87"><tspan x="50">System</tspan></text><g><rect class="journey-section section-type-0" fill="#191970" height="50" rx="3" ry="3" stroke="#666" width="350" x="150" y="50"/><text fill="#333333" font-family="sans-serif" font-size="14" text-anchor="middle" x="325.0" y="80.0">Suche</text></g><g><line class="task-line" id="task0" stroke="#666" stroke-dasharray="4 2" stroke-width="1px" x1="225" x2="225" y1="110" y2="450"/><circle class="face" cx="225" cy="300" overflow="visible" r="15" stroke-width="2"/><g><circle cx="220" cy="295" fill="#666" r="1.5" stroke="#666" stroke-width="2"/><circle cx="230" cy="295" fill="#666" r="1.5" stroke="#666" stroke-width="2"/><path class="mouth" d="M7.5,0A7.5,7.5,0,1,1,-7.5,0L-6.818,0A6.818,6.818,0,1,0,6.818,0Z" transform="translate(225,302)"/></g><rect class="task task-type-0" fill="#191970" height="50" rx="3" ry="3" stroke="#666" width="150" x="150" y="110"/><circle class="actor-0" cx="164" cy="110" fill="#8FBC8F" r="7" stroke="#000"><title>Kunde</title></circle><text fill="#333333" font-family="sans-serif" font-size="14" text-anchor="middle" x="225.0" y="140.0">Produkt finden</text></g><g><line class="task-line" id="task1" stroke="#666" stroke-dasharray="4 2" stroke-width="1px" x1="425" x2="425" y1="110" y2="450"/><circle class="face" cx="425" cy="360" overflow="visible" r="15" stroke-width="2"/><g><circle cx="420" cy="355" fill="#666" r="1.5" stroke="#666" stroke-width="2"/><circle cx="430" cy="355" fill="#666" r="1.5" stroke="#666" stroke-width="2"/><line class="mouth" stroke="#666" stroke-width="1px" x1="420" x2="430" y1="367" y2="367"/></g><rect class="task task-type-0" fill="#191970" height="50" rx="3" ry="3" stroke="#666" width="150" x="350" y="110"/><circle class="actor-0" cx="364" cy="110" fill="#8FBC8F" r="7" stroke="#000"><title>Kunde</title></circle><text fill="#333333" font-family="sans-serif" font-size="14" text-anchor="middle" x="425.0" y="140.0">Bewertungen lesen</text></g><g><rect class="journey-section section-type-1" fill="#8B008B" height="50" rx="3" ry="3" stroke="#666" width="350" x="550" y="50"/><text fill="#333333" font-family="sans-serif" font-size="14" text-anchor="middle" x="725.0" y="80.0">Kauf</text></g><g><line class="task-line" id="task2" stroke="#666" stroke-dasharray="4 2" stroke-width="1px" x1="625" x2="625" y1="110" y2="450"/><circle class="face" cx="625" cy="300" overflow="visible" r="15" stroke-width="2"/><g><circle cx="620" cy="295" fill="#666" r="1.5" stroke="#666" stroke-width="2"/><circle cx="630" cy="295" fill="#666" r="1.5" stroke="#666" stroke-width="2"/><path class="mouth" d="M7.5,0A7.5,7.5,0,1,1,-7.5,0L-6.818,0A6.818,6.818,0,1,0,6.818,0Z" transform="translate(625,302)"/></g><rect class="task task-type-1" fill="#8B008B" height="50" rx="3" ry="3" stroke="#666" width="150" x="550" y="110"/><circle class="actor-0" cx="564" cy="110" fill="#8FBC8F" r="7" stroke="#000"><title>Kunde</title></circle><text fill="#333333" font-family="sans-serif" font-size="14" text-anchor="middle" x="625.0" y="140.0">In den Warenkorb</text></g><g><line class="task-line" id="task3" stroke="#666" stroke-dasharray="4 2" stroke-width="1px" x1="825" x2="825" y1="110" y2="450"/><circle class="face" cx="825" cy="390" overflow="visible" r="15" stroke-width="2"/><g><circle cx="820" cy="385" fill="#666" r="1.5" stroke="#666" stroke-width="2"/><circle cx="830" cy="385" fill="#666" r="1.5" stroke="#666" stroke-width="2"/><path class="mouth" d="M-7.5,0A7.5,7.5,0,1,1,7.5,0L6.818,0A6.818,6.818,0,1,0,-6.818,0Z" transform="translate(825,397)"/></g><rect class="task task-type-1" fill="#8B008B" height="50" rx="3" ry="3" stroke="#666" width="150" x="750" y="110"/><circle class="actor-0" cx="764" cy="110" fill="#8FBC8F" r="7" stroke="#000"><title>Kunde</title></circle><circle class="actor-1" cx="774" cy="110" fill="#7CFC00" r="7" stroke="#000"><title>System</title></circle><text fill="#333333" font-family="sans-serif" font-size="14" text-anchor="middle" x="825.0" y="140.0">Bezahlen</text></g><g><rect class="journey-section section-type-2" fill="#4B0082" height="50" rx="3" ry="3" stroke="#666" width="350" x="950" y="50"/><text fill="#333333" font-family="sans-serif" font-size="14" text-anchor="middle" x="1125.0" y="80.0">Nachkauf</text></g><g><line class="task-line" id="task4" stroke="#666" stroke-dasharray="4 2" stroke-width="1px" x1="1025" x2="1025" y1="110" y2="450"/><circle class="face" cx="1025" cy="330" overflow="visible" r="15" stroke-width="2"/><g><circle cx="1020" cy="325" fill="#666" r="1.5" stroke="#666" stroke-width="2"/><circle cx="1030" cy="325" fill="#666" r="1.5" stroke="#666" stroke-width="2"/><path class="mouth" d="M7.5,0A7.5,7.5,0,1,1,-7.5,0L-6.818,0A6.818,6.818,0,1,0,6.818,0Z" transform="translate(1025,332)"/></g><rect class="task task-type-2" fill="#4B0082" height="50" rx="3" ry="3" stroke="#666" width="150" x="950" y="110"/><circle class="actor-0" cx="964" cy="110" fill="#8FBC8F" r="7" stroke="#000"><title>Kunde</title></circle><circle class="actor-1" cx="974" cy="110" fill="#7CFC00" r="7" stroke="#000"><title>System</title></circle><text fill="#333333" font-family="sans-serif" font-size="14" text-anchor="middle" x="1025.0" y="140.0">Lieferstatus pruefen</text></g><g><line class="task-line" id="task5" stroke="#666" stroke-dasharray="4 2" stroke-width="1px" x1="1225" x2="1225" y1="110" y2="450"/><circle class="face" cx="1225" cy="360" overflow="visible" r="15" stroke-width="2"/><g><circle cx="1220" cy="355" fill="#666" r="1.5" stroke="#666" stroke-width="2"/><circle cx="1230" cy="355" fill="#666" r="1.5" stroke="#666" stroke-width="2"/><line class="mouth" stroke="#666" stroke-width="1px" x1="1220" x2="1230" y1="367" y2="367"/></g><rect class="task task-type-2" fill="#4B0082" height="50" rx="3" ry="3" stroke="#666" width="150" x="1150" y="110"/><circle class="actor-0" cx="1164" cy="110" fill="#8FBC8F" r="7" stroke="#000"><title>Kunde</title></circle><text fill="#333333" font-family="sans-serif" font-size="14" text-anchor="middle" x="1225.0" y="140.0">Bewerten</text></g><text font-family="&quot;trebuchet ms&quot;, verdana, arial, sans-serif" font-size="4ex" font-weight="bold" x="150" y="25">Einkaufserlebnis</text><line marker-end="url(#arrowhead)" stroke="black" stroke-width="4" x1="150" x2="1346" y1="200" y2="200"/></svg>