<svg xmlns="http://www.w3.org/2000/svg" aria-roledescription="er" class="erDiagram" height="1703" id="mmd-3" role="graphics-document document" viewBox="-8 -8 504 429" width="2000"><style>#mmd-3{font-family:"trebuchet ms",verdana,arial,sans-serif;font-size:16px;fill:#333;}#mmd-3 .edge-animation-slow{stroke-dasharray:9,5!important;stroke-dashoffset:900;}#mmd-3 .edge-animation-fast{stroke-dasharray:9,5!important;stroke-dashoffset:900;}#mmd-3 .error-icon{fill:#552222;}#mmd-3 .error-text{fill:#552222;stroke:#552222;}#mmd-3 .edge-thickness-normal{stroke-width:1px;}#mmd-3 .edge-thickness-thick{stroke-width:3.5px;}#mmd-3 .edge-pattern-solid{stroke-dasharray:0;}#mmd-3 .edge-thickness-invisible{stroke-width:0;fill:none;}#mmd-3 .edge-pattern-dashed{stroke-dasharray:3;}#mmd-3 .edge-pattern-dotted{stroke-dasharray:2;}#mmd-3 .marker{fill:#333333;stroke:#333333;}#mmd-3 .marker.cross{stroke:#333333;}#mmd-3 svg{font-family:"trebuchet ms",verdana,arial,sans-serif;font-size:16px;}#mmd-3 p{}#mmd-3 .entityBox{fill:#ECECFF;stroke:#9370DB;}#mmd-3 .relationshipLabelBox{fill:#f9ffec;opacity:0.7;}#mmd-3 .relationshipLabelBox rect{opacity:0.5;}#mmd-3 .labelBkg{}#mmd-3 .edgeLabel .label{fill:#9370DB;font-size:14px;}#mmd-3 .label{font-family:"trebuchet ms",verdana,arial,sans-serif;color:#333;}#mmd-3 .edge-pattern-dashed{stroke-dasharray:8,8;}#mmd-3 .node rect,#mmd-3 .node circle,#mmd-3 .node ellipse,#mmd-3 .node polygon{fill:#ECECFF;stroke:#9370DB;stroke-width:1px;}#mmd-3 .relationshipLine{stroke:#333333;stroke-width:1;fill:none;}#mmd-3 .marker{fill:none!important;stroke:#333333!important;stroke-width:1;}#mmd-3 .edgeLabel{}#mmd-3 .edgeLabel .label rect{fill:#e8e8e8;}#mmd-3 .edgeLabel .label text{fill:#333;}


</style><g><defs><marker class="marker onlyOne er" id="mmd-3_er-onlyOneStart" markerHeight="18" markerWidth="18" orient="auto" overflow="visible" refX="0" refY="9"><path d="M9,0 L9,18 M15,0 L15,18" fill="#333333" style="fill:#333333;"/></marker><marker class="marker onlyOne er" id="mmd-3_er-onlyOneEnd" markerHeight="18" markerWidth="18" orient="auto" overflow="visible" refX="18" refY="9"><path d="M3,0 L3,18 M9,0 L9,18" fill="#333333" style="fill:#333333;"/></marker><marker class="marker zeroOrOne er" id="mmd-3_er-zeroOrOneStart" markerHeight="18" markerWidth="30" orient="auto" overflow="visible" refX="0" refY="9"><circle cx="21" cy="9" fill="#333333" r="6" style="fill:#333333;"/><path d="M9,0 L9,18" fill="#333333" style="fill:#333333;"/></marker><marker class="marker zeroOrOne er" id="mmd-3_er-zeroOrOneEnd" markerHeight="18" markerWidth="30" orient="auto" overflow="visible" refX="30" refY="9"><circle cx="9" cy="9" fill="#333333" r="6" style="fill:#333333;"/><path d="M21,0 L21,18" fill="#333333" style="fill:#333333;"/></marker><marker class="marker oneOrMore er" id="mmd-3_er-oneOrMoreStart" markerHeight="30" markerWidth="30" orient="auto" overflow="visible" refX="18" refY="18"><path d="M0,18 Q 18,0 36,18 Q 18,36 0,18 M42,9 L42,27" fill="#333333" style="fill:#333333;"/></marker><marker class="marker oneOrMore er" id="mmd-3_er-oneOrMoreEnd" markerHeight="30" markerWidth="30" orient="auto" overflow="visible" refX="27" refY="18"><path d="M3,9 L3,27 M9,18 Q27,0 45,18 Q27,36 9,18" fill="#333333" style="fill:#333333;"/></marker><marker class="marker zeroOrMore er" id="mmd-3_er-zeroOrMoreStart" markerHeight="30" markerWidth="30" orient="auto" overflow="visible" refX="18" refY="18"><circle cx="48" cy="18" fill="#333333" r="6" style="fill:#333333;"/><path d="M0,18 Q18,0 36,18 Q18,36 0,18" fill="#333333" style="fill:#333333;"/></marker><marker class="marker zeroOrMore er" id="mmd-3_er-zeroOrMoreEnd" markerHeight="30" markerWidth="30" orient="auto" overflow="visible" refX="39" refY="18"><circle cx="9" cy="18" fill="#333333" r="6" style="fill:#333333;"/><path d="M21,18 Q39,0 57,18 Q39,36 21,18" fill="#333333" style="fill:#333333;"/></marker></defs><defs/><defs/><defs/><defs/><defs/><defs/><defs/><g class="root"><g class="clusters"/><g class="nodes"><g class="node default " id="entity-BUCH-0" transform="translate(248, 337.5)"><g><path d="M-81 -75.5 L81 -75.5 L81 75.5 L-81 75.5" fill="#ECECFF" stroke="none" stroke-width="0"/><path d="M-81 -75.5 C-27.26787557484075 -75.5, 26.464248850318498 -75.5, 81 -75.5 M-81 -75.5 C-17.20926414429355 -75.5, 46.5814717114129 -75.5, 81 -75.5 M81 -75.5 C81 -42.10604827494637, 81 -8.712096549892735, 81 75.5 M81 -75.5 C81 -30.95965030299117, 81 13.580699394017657, 81 75.5 M81 75.5 C19.12818237643745 75.5, -42.7436352471251 75.5, -81 75.5 M81 75.5 C23.984605845312558 75.5, -33.030788309374884 75.5, -81 75.5 M-81 75.5 C-81 39.33110196109941, -81 3.162203922198813, -81 -75.5 M-81 75.5 C-81 30.532949146455096, -81 -14.434101707089809, -81 -75.5" fill="none" stroke="#9370DB" stroke-dasharray="0 0" stroke-width="1.3"/></g><g class="row-rect-odd"><path d="M-81 -37.75 L81 -37.75 L81 0 L-81 0" fill="#ffffff" stroke="none" stroke-width="0"/><path d="M-81 -37.75 C-27.42485511608453 -37.75, 26.15028976783094 -37.75, 81 -37.75 M-81 -37.75 C-46.84191879580842 -37.75, -12.683837591616836 -37.75, 81 -37.75 M81 -37.75 C81 -23.550065488307858, 81 -9.350130976615716, 81 0 M81 -37.75 C81 -25.670011805878644, 81 -13.590023611757285, 81 0 M81 0 C27.574436254698355 0, -25.85112749060329 0, -81 0 M81 0 C40.5675374349959 0, 0.1350748699917972 0, -81 0 M-81 0 C-81 -9.553651298493595, -81 -19.10730259698719, -81 -37.75 M-81 0 C-81 -12.687356567904079, -81 -25.374713135808157, -81 -37.75" fill="none" stroke="#9370DB" stroke-dasharray="0 0" stroke-width="1.3"/></g><g class="row-rect-even"><path d="M-81 0 L81 0 L81 37.75 L-81 37.75" fill="#f1f1ff" stroke="none" stroke-width="0"/><path d="M-81 0 C-30.1144035790185 0, 20.771192841963 0, 81 0 M-81 0 C-22.242540949423635 0, 36.51491810115273 0, 81 0 M81 0 C81 11.989266776214418, 81 23.978533552428836, 81 37.75 M81 0 C81 11.610899745233763, 81 23.221799490467525, 81 37.75 M81 37.75 C40.652230720762 37.75, 0.3044614415239977 37.75, -81 37.75 M81 37.75 C27.926497422413824 37.75, -25.14700515517235 37.75, -81 37.75 M-81 37.75 C-81 25.54506114128165, -81 13.340122282563303, -81 0 M-81 37.75 C-81 22.806547220194687, -81 7.863094440389371, -81 0" fill="none" stroke="#9370DB" stroke-dasharray="0 0" stroke-width="1.3"/></g><g class="row-rect-odd"><path d="M-81 37.75 L81 37.75 L81 75.5 L-81 75.5" fill="#ffffff" stroke="none" stroke-width="0"/><path d="M-81 37.75 C-46.629575494253956 37.75, -12.259150988507912 37.75, 81 37.75 M-81 37.75 C-19.27746626389397 37.75, 42.44506747221206 37.75, 81 37.75 M81 37.75 C81 51.302248223687386, 81 64.85449644737477, 81 75.5 M81 37.75 C81 47.495282292107895, 81 57.24056458421579, 81 75.5 M81 75.5 C41.38536735672627 75.5, 1.7707347134525406 75.5, -81 75.5 M81 75.5 C26.209574786071144 75.5, -28.580850427857712 75.5, -81 75.5 M-81 75.5 C-81 62.42742503023852, -81 49.354850060477034, -81 37.75 M-81 75.5 C-81 61.291045426779476, -81 47.08209085355895, -81 37.75" fill="none" stroke="#9370DB" stroke-dasharray="0 0" stroke-width="1.3"/></g><g class="label name" transform="translate(0, -56.6)"><g/><text y="-10.1"><tspan class="text-outer-tspan row" dy="1.1em" x="0" y="-0.1em"><tspan class="text-inner-tspan" font-style="normal" font-weight="normal">BUCH</tspan></tspan></text></g><g class="label attribute-type" transform="translate(-49, -18.9)"><g/><text text-anchor="middle" y="-10.1"><tspan class="text-outer-tspan row" dy="1.1em" x="0" y="-0.1em"><tspan class="text-inner-tspan" font-style="normal" font-weight="normal">string</tspan></tspan></text></g><g class="label attribute-name" transform="translate(10.5, -18.9)"><g/><text text-anchor="middle" y="-10.1"><tspan class="text-outer-tspan row" dy="1.1em" x="0" y="-0.1em"><tspan class="text-inner-tspan" font-style="normal" font-weight="normal">isbn</tspan></tspan></text></g><g class="label attribute-keys" transform="translate(59.5, -18.9)"><g/><text text-anchor="middle" y="-10.1"><tspan class="text-outer-tspan row" dy="1.1em" x="0" y="-0.1em"><tspan class="text-inner-tspan" font-style="normal" font-weight="normal">PK</tspan></tspan></text></g><g class="label attribute-comment" transform="translate(59.5, -18.9)" visibility="hidden"><g/><text text-anchor="middle" y="-10.1"><tspan class="text-outer-tspan row" dy="1.1em" x="0" y="-0.1em"/></text></g><g class="label attribute-type" transform="translate(-49, 18.9)"><g/><text text-anchor="middle" y="-10.1"><tspan class="text-outer-tspan row" dy="1.1em" x="0" y="-0.1em"><tspan class="text-inner-tspan" font-style="normal" font-weight="normal">string</tspan></tspan></text></g><g class="label attribute-name" transform="translate(10.5, 18.9)"><g/><text text-anchor="middle" y="-10.1"><tspan class="text-outer-tspan row" dy="1.1em" x="0" y="-0.1em"><tspan class="text-inner-tspan" font-style="normal" font-weight="normal">titel</tspan></tspan></text></g><g class="label attribute-keys" transform="translate(59.5, 18.9)"><g/><text text-anchor="middle" y="-10.1"><tspan class="text-outer-tspan row" dy="1.1em" x="0" y="-0.1em"/></text></g><g class="label attribute-comment" transform="translate(59.5, 18.9)" visibility="hidden"><g/><text text-anchor="middle" y="-10.1"><tspan class="text-outer-tspan row" dy="1.1em" x="0" y="-0.1em"/></text></g><g class="label attribute-type" transform="translate(-49, 56.6)"><g/><text text-anchor="middle" y="-10.1"><tspan class="text-outer-tspan row" dy="1.1em" x="0" y="-0.1em"><tspan class="text-inner-tspan" font-style="normal" font-weight="normal">int</tspan></tspan></text></g><g class="label attribute-name" transform="translate(10.5, 56.6)"><g/><text text-anchor="middle" y="-10.1"><tspan class="text-outer-tspan row" dy="1.1em" x="0" y="-0.1em"><tspan class="text-inner-tspan" font-style="normal" font-weight="normal">jahr</tspan></tspan></text></g><g class="label attribute-keys" transform="translate(59.5, 56.6)"><g/><text text-anchor="middle" y="-10.1"><tspan class="text-outer-tspan row" dy="1.1em" x="0" y="-0.1em"/></text></g><g class="label attribute-comment" transform="translate(59.5, 56.6)" visibility="hidden"><g/><text text-anchor="middle" y="-10.1"><tspan class="text-outer-tspan row" dy="1.1em" x="0" y="-0.1em"/></text></g><g class="divider"><path d="M-81 -37.75 C-22.97161976253004 -37.75, 35.05676047493992 -37.75, 81 -37.75 M-81 -37.75 C-31.370423227783498 -37.75, 18.259153544433005 -37.75, 81 -37.75" fill="none" stroke="#9370DB" stroke-dasharray="0 0" stroke-width="1.3"/></g><g class="divider"><path d="M-17 -37.75 C-17 3.634364552149698, -17 45.018729104299396, -17 75.5 M-17 -37.75 C-17 -11.471434058014939, -17 14.807131883970122, -17 75.5" fill="none" stroke="#9370DB" stroke-dasharray="0 0" stroke-width="1.3"/></g><g class="divider"><path d="M38 -37.75 C38 -0.6947603982522423, 38 36.360479203495515, 38 75.5 M38 -37.75 C38 6.351523631960831, 38 50.45304726392166, 38 75.5" fill="none" stroke="#9370DB" stroke-dasharray="0 0" stroke-width="1.3"/></g><g class="divider"><path d="M-81 -37.75 C-24.21809950016752 -37.75, 32.56380099966496 -37.75, 81 -37.75 M-81 -37.75 C-37.98642994561641 -37.75, 5.027140108767185 -37.75, 81 -37.75" fill="none" stroke="#9370DB" stroke-dasharray="0 0" stroke-width="1.3"/></g></g><g class="node default " id="entity-AUTOR-1" transform="translate(93, 83.5)"><g><path d="M-85 -56.625 L85 -56.625 L85 56.625 L-85 56.625" fill="#ECECFF" stroke="none" stroke-width="0"/><path d="M-85 -56.625 C-31.694475956261478 -56.625, 21.611048087477045 -56.625, 85 -56.625 M-85 -56.625 C-43.64015187164572 -56.625, -2.280303743291441 -56.625, 85 -56.625 M85 -56.625 C85 -15.176999892555592, 85 26.271000214888815, 85 56.625 M85 -56.625 C85 -23.662955253934022, 85 9.299089492131955, 85 56.625 M85 56.625 C17.914559930520895 56.625, -49.17088013895821 56.625, -85 56.625 M85 56.625 C46.917592692259845 56.625, 8.83518538451969 56.625, -85 56.625 M-85 56.625 C-85 21.82614354025887, -85 -12.972712919482262, -85 -56.625 M-85 56.625 C-85 29.126862569094026, -85 1.6287251381880523, -85 -56.625" fill="none" stroke="#9370DB" stroke-dasharray="0 0" stroke-width="1.3"/></g><g class="row-rect-odd"><path d="M-85 -18.875 L85 -18.875 L85 18.875 L-85 18.875" fill="#ffffff" stroke="none" stroke-width="0"/><path d="M-85 -18.875 C-40.186360738017584 -18.875, 4.627278523964833 -18.875, 85 -18.875 M-85 -18.875 C-18.017521698772924 -18.875, 48.96495660245415 -18.875, 85 -18.875 M85 -18.875 C85 -11.235572356514451, 85 -3.5961447130289024, 85 18.875 M85 -18.875 C85 -7.028249500414532, 85 4.818500999170936, 85 18.875 M85 18.875 C23.23067393737537 18.875, -38.53865212524926 18.875, -85 18.875 M85 18.875 C27.987602147375092 18.875, -29.024795705249815 18.875, -85 18.875 M-85 18.875 C-85 9.59668459092673, -85 0.3183691818534591, -85 -18.875 M-85 18.875 C-85 5.788822766969078, -85 -7.297354466061844, -85 -18.875" fill="none" stroke="#9370DB" stroke-dasharray="0 0" stroke-width="1.3"/></g><g class="row-rect-even"><path d="M-85 18.875 L85 18.875 L85 56.625 L-85 56.625" fill="#f1f1ff" stroke="none" stroke-width="0"/><path d="M-85 18.875 C-44.002006016380356 18.875, -3.0040120327607127 18.875, 85 18.875 M-85 18.875 C-35.151099590441866 18.875, 14.697800819116267 18.875, 85 18.875 M85 18.875 C85 30.959645547727884, 85 43.04429109545577, 85 56.625 M85 18.875 C85 30.67321863065289, 85 42.47143726130578, 85 56.625 M85 56.625 C45.17891416350713 56.625, 5.357828327014261 56.625, -85 56.625 M85 56.625 C38.04880278047646 56.625, -8.902394439047086 56.625, -85 56.625 M-85 56.625 C-85 48.69785967855896, -85 40.77071935711793, -85 18.875 M-85 56.625 C-85 47.22959446598801, -85 37.834188931976016, -85 18.875" fill="none" stroke="#9370DB" stroke-dasharray="0 0" stroke-width="1.3"/></g><g class="label name" transform="translate(0, -37.8)"><g/><text y="-10.1"><tspan class="text-outer-tspan row" dy="1.1em" x="0" y="-0.1em"><tspan class="text-inner-tspan" font-style="normal" font-weight="normal">AUTOR</tspan></tspan></text></g><g class="label attribute-type" transform="translate(-53, 0)"><g/><text text-anchor="middle" y="-10.1"><tspan class="text-outer-tspan row" dy="1.1em" x="0" y="-0.1em"><tspan class="text-inner-tspan" font-style="normal" font-weight="normal">int</tspan></tspan></text></g><g class="label attribute-name" transform="translate(10.5, 0)"><g/><text text-anchor="middle" y="-10.1"><tspan class="text-outer-tspan row" dy="1.1em" x="0" y="-0.1em"><tspan class="text-inner-tspan" font-style="normal" font-weight="normal">id</tspan></tspan></text></g><g class="label attribute-keys" transform="translate(63.5, 0)"><g/><text text-anchor="middle" y="-10.1"><tspan class="text-outer-tspan row" dy="1.1em" x="0" y="-0.1em"><tspan class="text-inner-tspan" font-style="normal" font-weight="normal">PK</tspan></tspan></text></g><g class="label attribute-comment" transform="translate(63.5, 0)" visibility="hidden"><g/><text text-anchor="middle" y="-10.1"><tspan class="text-outer-tspan row" dy="1.1em" x="0" y="-0.1em"/></text></g><g class="label attribute-type" transform="translate(-53, 37.8)"><g/><text text-anchor="middle" y="-10.1"><tspan class="text-outer-tspan row" dy="1.1em" x="0" y="-0.1em"><tspan class="text-inner-tspan" font-style="normal" font-weight="normal">string</tspan></tspan></text></g><g class="label attribute-name" transform="translate(10.5, 37.8)"><g/><text text-anchor="middle" y="-10.1"><tspan class="text-outer-tspan row" dy="1.1em" x="0" y="-0.1em"><tspan class="text-inner-tspan" font-style="normal" font-weight="normal">name</tspan></tspan></text></g><g class="label attribute-keys" transform="translate(63.5, 37.8)"><g/><text text-anchor="middle" y="-10.1"><tspan class="text-outer-tspan row" dy="1.1em" x="0" y="-0.1em"/></text></g><g class="label attribute-comment" transform="translate(63.5, 37.8)" visibility="hidden"><g/><text text-anchor="middle" y="-10.1"><tspan class="text-outer-tspan row" dy="1.1em" x="0" y="-0.1em"/></text></g><g class="divider"><path d="M-85 -18.875 C-21.66200241357975 -18.875, 41.6759951728405 -18.875, 85 -18.875 M-85 -18.875 C-46.85877083242232 -18.875, -8.717541664844646 -18.875, 85 -18.875" fill="none" stroke="#9370DB" stroke-dasharray="0 0" stroke-width="1.3"/></g><g class="divider"><path d="M-21 -18.875 C-21 -3.314137575253957, -21 12.246724849492086, -21 56.625 M-21 -18.875 C-21 1.0093409265745699, -21 20.89368185314914, -21 56.625" fill="none" stroke="#9370DB" stroke-dasharray="0 0" stroke-width="1.3"/></g><g class="divider"><path d="M42 -18.875 C42 6.2226088494731115, 42 31.320217698946223, 42 56.625 M42 -18.875 C42 6.33842021095575, 42 31.5518404219115, 42 56.625" fill="none" stroke="#9370DB" stroke-dasharray="0 0" stroke-width="1.3"/></g><g class="divider"><path d="M-85 -18.875 C-22.108489134564003 -18.875, 40.783021730871994 -18.875, 85 -18.875 M-85 -18.875 C-24.290488851857575 -18.875, 36.41902229628485 -18.875, 85 -18.875" fill="none" stroke="#9370DB" stroke-dasharray="0 0" stroke-width="1.3"/></g></g><g class="node default " id="entity-VERLAG-2" transform="translate(403, 83.5)"><g><path d="M-85 -75.5 L85 -75.5 L85 75.5 L-85 75.5" fill="#ECECFF" stroke="none" stroke-width="0"/><path d="M-85 -75.5 C-43.07183301850957 -75.5, -1.1436660370191447 -75.5, 85 -75.5 M-85 -75.5 C-45.444123963687254 -75.5, -5.888247927374508 -75.5, 85 -75.5 M85 -75.5 C85 -40.687112118974, 85 -5.874224237947999, 85 75.5 M85 -75.5 C85 -22.26402300326061, 85 30.971953993478778, 85 75.5 M85 75.5 C44.82924849909103 75.5, 4.658496998182059 75.5, -85 75.5 M85 75.5 C46.052592575105635 75.5, 7.10518515021127 75.5, -85 75.5 M-85 75.5 C-85 41.1044800265726, -85 6.708960053145205, -85 -75.5 M-85 75.5 C-85 29.526218520174318, -85 -16.447562959651364, -85 -75.5" fill="none" stroke="#9370DB" stroke-dasharray="0 0" stroke-width="1.3"/></g><g class="row-rect-odd"><path d="M-85 -37.75 L85 -37.75 L85 0 L-85 0" fill="#ffffff" stroke="none" stroke-width="0"/><path d="M-85 -37.75 C-17.474511294655457 -37.75, 50.050977410689086 -37.75, 85 -37.75 M-85 -37.75 C-44.310721851487216 -37.75, -3.6214437029744317 -37.75, 85 -37.75 M85 -37.75 C85 -26.65429151916814, 85 -15.558583038336284, 85 0 M85 -37.75 C85 -24.35796842553144, 85 -10.965936851062878, 85 0 M85 0 C31.34540515120687 0, -22.309189697586262 0, -85 0 M85 0 C50.86936356642484 0, 16.738727132849675 0, -85 0 M-85 0 C-85 -13.920336915311466, -85 -27.840673830622933, -85 -37.75 M-85 0 C-85 -12.185617717209226, -85 -24.371235434418452, -85 -37.75" fill="none" stroke="#9370DB" stroke-dasharray="0 0" stroke-width="1.3"/></g><g class="row-rect-even"><path d="M-85 0 L85 0 L85 37.75 L-85 37.75" fill="#f1f1ff" stroke="none" stroke-width="0"/><path d="M-85 0 C-45.2467777149679 0, -5.493555429935796 0, 85 0 M-85 0 C-30.133059653966463 0, 24.733880692067075 0, 85 0 M85 0 C85 9.505967132048621, 85 19.011934264097242, 85 37.75 M85 0 C85 10.026733369354458, 85 20.053466738708916, 85 37.75 M85 37.75 C28.969248919145898 37.75, -27.061502161708205 37.75, -85 37.75 M85 37.75 C21.448820183586854 37.75, -42.10235963282629 37.75, -85 37.75 M-85 37.75 C-85 27.8353518897323, -85 17.920703779464606, -85 0 M-85 37.75 C-85 29.38872160729831, -85 21.027443214596623, -85 0" fill="none" stroke="#9370DB" stroke-dasharray="0 0" stroke-width="1.3"/></g><g class="row-rect-odd"><path d="M-85 37.75 L85 37.75 L85 75.5 L-85 75.5" fill="#ffffff" stroke="none" stroke-width="0"/><path d="M-85 37.75 C-41.81744497514062 37.75, 1.3651100497187656 37.75, 85 37.75 M-85 37.75 C-47.312152223311685 37.75, -9.62430444662337 37.75, 85 37.75 M85 37.75 C85 46.764722428480866, 85 55.779444856961724, 85 75.5 M85 37.75 C85 49.030818251776516, 85 60.31163650355303, 85 75.5 M85 75.5 C42.23736376517805 75.5, -0.5252724696438946 75.5, -85 75.5 M85 75.5 C50.507973446037404 75.5, 16.01594689207481 75.5, -85 75.5 M-85 75.5 C-85 62.53210031287353, -85 49.56420062574706, -85 37.75 M-85 75.5 C-85 61.47076694608813, -85 47.44153389217627, -85 37.75" fill="none" stroke="#9370DB" stroke-dasharray="0 0" stroke-width="1.3"/></g><g class="label name" transform="translate(0, -56.6)"><g/><text y="-10.1"><tspan class="text-outer-tspan row" dy="1.1em" x="0" y="-0.1em"><tspan class="text-inner-tspan" font-style="normal" font-weight="normal">VERLAG</tspan></tspan></text></g><g class="label attribute-type" transform="translate(-53, -18.9)"><g/><text text-anchor="middle" y="-10.1"><tspan class="text-outer-tspan row" dy="1.1em" x="0" y="-0.1em"><tspan class="text-inner-tspan" font-style="normal" font-weight="normal">int</tspan></tspan></text></g><g class="label attribute-name" transform="translate(10.5, -18.9)"><g/><text text-anchor="middle" y="-10.1"><tspan class="text-outer-tspan row" dy="1.1em" x="0" y="-0.1em"><tspan class="text-inner-tspan" font-style="normal" font-weight="normal">id</tspan></tspan></text></g><g class="label attribute-keys" transform="translate(63.5, -18.9)"><g/><text text-anchor="middle" y="-10.1"><tspan class="text-outer-tspan row" dy="1.1em" x="0" y="-0.1em"><tspan class="text-inner-tspan" font-style="normal" font-weight="normal">PK</tspan></tspan></text></g><g class="label attribute-comment" transform="translate(63.5, -18.9)" visibility="hidden"><g/><text text-anchor="middle" y="-10.1"><tspan class="text-outer-tspan row" dy="1.1em" x="0" y="-0.1em"/></text></g><g class="label attribute-type" transform="translate(-53, 18.9)"><g/><text text-anchor="middle" y="-10.1"><tspan class="text-outer-tspan row" dy="1.1em" x="0" y="-0.1em"><tspan class="text-inner-tspan" font-style="normal" font-weight="normal">string</tspan></tspan></text></g><g class="label attribute-name" transform="translate(10.5, 18.9)"><g/><text text-anchor="middle" y="-10.1"><tspan class="text-outer-tspan row" dy="1.1em" x="0" y="-0.1em"><tspan class="text-inner-tspan" font-style="normal" font-weight="normal">name</tspan></tspan></text></g><g class="label attribute-keys" transform="translate(63.5, 18.9)"><g/><text text-anchor="middle" y="-10.1"><tspan class="text-outer-tspan row" dy="1.1em" x="0" y="-0.1em"/></text></g><g class="label attribute-comment" transform="translate(63.5, 18.9)" visibility="hidden"><g/><text text-anchor="middle" y="-10.1"><tspan class="text-outer-tspan row" dy="1.1em" x="0" y="-0.1em"/></text></g><g class="label attribute-type" transform="translate(-53, 56.6)"><g/><text text-anchor="middle" y="-10.1"><tspan class="text-outer-tspan row" dy="1.1em" x="0" y="-0.1em"><tspan class="text-inner-tspan" font-style="normal" font-weight="normal">string</tspan></tspan></text></g><g class="label attribute-name" transform="translate(10.5, 56.6)"><g/><text text-anchor="middle" y="-10.1"><tspan class="text-outer-tspan row" dy="1.1em" x="0" y="-0.1em"><tspan class="text-inner-tspan" font-style="normal" font-weight="normal">stadt</tspan></tspan></text></g><g class="label attribute-keys" transform="translate(63.5, 56.6)"><g/><text text-anchor="middle" y="-10.1"><tspan class="text-outer-tspan row" dy="1.1em" x="0" y="-0.1em"/></text></g><g class="label attribute-comment" transform="translate(63.5, 56.6)" visibility="hidden"><g/><text text-anchor="middle" y="-10.1"><tspan class="text-outer-tspan row" dy="1.1em" x="0" y="-0.1em"/></text></g><g class="divider"><path d="M-85 -37.75 C-31.75522918554094 -37.75, 21.48954162891812 -37.75, 85 -37.75 M-85 -37.75 C-40.818089539312275 -37.75, 3.3638209213754493 -37.75, 85 -37.75" fill="none" stroke="#9370DB" stroke-dasharray="0 0" stroke-width="1.3"/></g><g class="divider"><path d="M-21 -37.75 C-21 5.54137906112102, -21 48.83275812224204, -21 75.5 M-21 -37.75 C-21 -0.7717415000565566, -21 36.20651699988689, -21 75.5" fill="none" stroke="#9370DB" stroke-dasharray="0 0" stroke-width="1.3"/></g><g class="divider"><path d="M42 -37.75 C42 -6.444756446489901, 42 24.860487107020198, 42 75.5 M42 -37.75 C42 -5.273753499171093, 42 27.202493001657814, 42 75.5" fill="none" stroke="#9370DB" stroke-dasharray="0 0" stroke-width="1.3"/></g><g class="divider"><path d="M-85 -37.75 C-19.85900921811914 -37.75, 45.28198156376172 -37.75, 85 -37.75 M-85 -37.75 C-22.55406832842276 -37.75, 39.89186334315448 -37.75, 85 -37.75" fill="none" stroke="#9370DB" stroke-dasharray="0 0" stroke-width="1.3"/></g></g></g><g class="edgePaths"><path class=" edge-thickness-normal edge-pattern-solid relationshipLine" d="M93,140.125L93,151.854C93,163.583,93,187.042,105.333,208.876C117.667,230.711,142.333,250.922,154.667,261.027L167,271.132" data-edge="true" data-et="edge" data-id="id_entity-AUTOR-1_entity-BUCH-0_0" data-points="W3sieCI6OTMsInkiOjE0MC4xMjV9LHsieCI6OTMsInkiOjIxMC41fSx7IngiOjE2NywieSI6MjcxLjEzMjI1ODA2NDUxNjF9XQ==" id="id_entity-AUTOR-1_entity-BUCH-0_0" marker-end="url(#mmd-3_er-zeroOrMoreEnd)" marker-start="url(#mmd-3_er-onlyOneStart)"/><path class=" edge-thickness-normal edge-pattern-solid relationshipLine" d="M403,159L403,167.583C403,176.167,403,193.333,390.667,212.022C378.333,230.711,353.667,250.922,341.333,261.027L329,271.132" data-edge="true" data-et="edge" data-id="id_entity-VERLAG-2_entity-BUCH-0_1" data-points="W3sieCI6NDAzLCJ5IjoxNTl9LHsieCI6NDAzLCJ5IjoyMTAuNX0seyJ4IjozMjksInkiOjI3MS4xMzIyNTgwNjQ1MTYxfV0=" id="id_entity-VERLAG-2_entity-BUCH-0_1" marker-end="url(#mmd-3_er-zeroOrMoreEnd)" marker-start="url(#mmd-3_er-onlyOneStart)"/></g><g class="edgeLabels"><g class="edgeLabel" transform="translate(93, 210.5)"><g class="label" data-id="id_entity-AUTOR-1_entity-BUCH-0_0" transform="translate(0, 0)"><g><rect class="background" fill="#e8e8e8" height="23" style="opacity:0.85" width="62" x="-31.0" y="-11.5"/><text dy="0.35em" text-anchor="middle" y="0"><tspan class="text-outer-tspan row" text-anchor="middle" x="0"><tspan class="text-inner-tspan" font-style="normal" font-weight="normal">schreibt</tspan></tspan></text></g></g></g><g class="edgeLabel" transform="translate(403, 210.5)"><g class="label" data-id="id_entity-VERLAG-2_entity-BUCH-0_1" transform="translate(0, 0)"><g><rect class="background" fill="#e8e8e8" height="23" style="opacity:0.85" width="55" x="-27.5" y="-11.5"/><text dy="0.35em" text-anchor="middle" y="0"><tspan class="text-outer-tspan row" text-anchor="middle" x="0"><tspan class="text-inner-tspan" font-style="normal" font-weight="normal">verlegt</tspan></tspan></text></g></g></g></g></g></g></svg>