<svg xmlns="http://www.w3.org/2000/svg" aria-roledescription="quadrantChart" height="1993" id="mmd-7" role="graphics-document document" viewBox="-17 -15 525 523" width="2000"><style>#mmd-7{font-family:"trebuchet ms",verdana,arial,sans-serif;font-size:16px;fill:#333;}#mmd-7 .edge-animation-slow{stroke-dasharray:9,5!important;stroke-dashoffset:900;}#mmd-7 .edge-animation-fast{stroke-dasharray:9,5!important;stroke-dashoffset:900;}#mmd-7 .error-icon{fill:#552222;}#mmd-7 .error-text{fill:#552222;stroke:#552222;}#mmd-7 .edge-thickness-normal{stroke-width:1px;}#mmd-7 .edge-thickness-thick{stroke-width:3.5px;}#mmd-7 .edge-pattern-solid{stroke-dasharray:0;}#mmd-7 .edge-thickness-invisible{stroke-width:0;fill:none;}#mmd-7 .edge-pattern-dashed{stroke-dasharray:3;}#mmd-7 .edge-pattern-dotted{stroke-dasharray:2;}#mmd-7 .marker{fill:#333333;stroke:#333333;}#mmd-7 .marker.cross{stroke:#333333;}#mmd-7 svg{font-family:"trebuchet ms",verdana,arial,sans-serif;font-size:16px;}#mmd-7 p{}


</style><g/><g class="main"><g class="quadrants"><g class="quadrant"><rect fill="#ECECFF" height="212" width="232" x="263" y="45"/><text fill="#131300" font-size="16" text-anchor="middle" transform="translate(379, 50) rotate(0)" x="0" y="0">Quick Wins</text></g><g class="quadrant"><rect fill="#f1f1ff" height="212" width="232" x="31" y="45"/><text fill="#0e0e00" font-size="16" text-anchor="middle" transform="translate(147, 50) rotate(0)" x="0" y="0">Grossprojekte</text></g><g class="quadrant"><rect fill="#f6f6ff" height="212" width="232" x="31" y="257"/><text fill="#090900" font-size="16" text-anchor="middle" transform="translate(147, 262) rotate(0)" x="0" y="0">Nice-to-have</text></g><g class="quadrant"><rect fill="#fbfbff" height="212" width="232" x="263" y="257"/><text fill="#040400" font-size="16" text-anchor="middle" transform="translate(379, 262) rotate(0)" x="0" y="0">Zeitfresser</text></g></g><g class="border"><line style="stroke: #c7c7f1; stroke-width: 2" x1="30" x2="496" y1="45" y2="45"/><line style="stroke: #c7c7f1; stroke-width: 2" x1="495" x2="495" y1="46" y2="468"/><line style="stroke: #c7c7f1; stroke-width: 2" x1="30" x2="496" y1="469" y2="469"/><line style="stroke: #c7c7f1; stroke-width: 2" x1="31" x2="31" y1="46" y2="468"/><line style="stroke: #c7c7f1; stroke-width: 1" x1="263" x2="263" y1="46" y2="468"/><line style="stroke: #c7c7f1; stroke-width: 1" x1="32" x2="494" y1="257" y2="257"/></g><g class="data-points"><g class="data-point"><circle cx="402.2" cy="341.79999999999995" fill="#888888" r="5" stroke="#888888" stroke-width="0px"/><text fill="#131300" font-size="12" text-anchor="middle" transform="translate(402.2, 346.79999999999995) rotate(0)" x="0" y="0">Refactoring</text></g><g class="data-point"><circle cx="77.4" cy="257" fill="#888888" r="5" stroke="#888888" stroke-width="0px"/><text fill="#131300" font-size="12" text-anchor="middle" transform="translate(77.4, 262) rotate(0)" x="0" y="0">Bug Fix</text></g><g class="data-point"><circle cx="355.8" cy="87.39999999999999" fill="#888888" r="5" stroke="#888888" stroke-width="0px"/><text fill="#131300" font-size="12" text-anchor="middle" transform="translate(355.8, 92.39999999999999) rotate(0)" x="0" y="0">Feature B</text></g><g class="data-point"><circle cx="123.8" cy="129.79999999999998" fill="#888888" r="5" stroke="#888888" stroke-width="0px"/><text fill="#131300" font-size="12" text-anchor="middle" transform="translate(123.8, 134.79999999999998) rotate(0)" x="0" y="0">Feature A</text></g></g><g class="labels"><g class="label"><text fill="#131300" font-size="16" text-anchor="middle" transform="translate(147, 479) rotate(0)" x="0" y="0">Wenig Aufwand</text></g><g class="label"><text fill="#131300" font-size="16" text-anchor="middle" transform="translate(379, 479) rotate(0)" x="0" y="0">Viel Aufwand</text></g><g class="label"><text fill="#131300" font-size="16" text-anchor="middle" transform="translate(5, 363) rotate(-90)" x="0" y="0">Wenig Wirkung</text></g><g class="label"><text fill="#131300" font-size="16" text-anchor="middle" transform="translate(5, 151) rotate(-90)" x="0" y="0">Viel Wirkung</text></g></g><g class="title"><text fill="#131300" font-size="20" text-anchor="middle" transform="translate(250, 10) rotate(0)" x="0" y="0">Priorisierungsmatrix</text></g></g></svg>